<svg width="1438" height="117" viewBox="0 0 1438 117" fill="none" xmlns="http://www.w3.org/2000/svg">
<path fill-rule="evenodd" clip-rule="evenodd" d="M0 51.8869L39.6 43.2391C80.4 34.5913 159.6 17.2956 240 12.9717C320.4 8.64782 399.6 17.2956 480 30.2674C560.4 43.2391 639.6 60.5347 720 69.1826C800.4 77.8304 879.6 77.8304 960 75.6684C1040.4 73.5065 1119.6 69.1826 1200 56.2108C1280.4 43.2391 1359.6 21.6196 1400.4 10.8098L1440 0V116.746H1400.4C1359.6 116.746 1280.4 116.746 1200 116.746C1119.6 116.746 1040.4 116.746 960 116.746C879.6 116.746 800.4 116.746 720 116.746C639.6 116.746 560.4 116.746 480 116.746C399.6 116.746 320.4 116.746 240 116.746C159.6 116.746 80.4 116.746 39.6 116.746H0V51.8869Z" fill="white"/>
</svg>
