<svg width="334" height="293" viewBox="0 0 334 293" fill="none" xmlns="http://www.w3.org/2000/svg">
<path d="M316.078 146.385L313.578 146.385L316.078 146.385ZM167.188 269.053L167.188 266.553L167.188 269.053ZM167.188 23.7176L167.188 21.2176L167.188 23.7176ZM18.2973 146.385L20.7973 146.385L18.2973 146.385ZM106.009 258.833L104.316 256.993L106.009 258.833ZM107.032 258.629L107.888 256.28L107.032 258.629ZM78.3495 281.733L80.7093 282.558L78.3495 281.733ZM79.9706 282.799L78.2776 280.959L79.9706 282.799ZM88.3642 250.472L89.509 248.25L88.3642 250.472ZM88.856 251.697L86.4962 250.872L88.856 251.697ZM313.578 146.385C313.578 212.321 248.512 266.553 167.188 266.553L167.188 271.553C250.323 271.553 318.578 215.945 318.578 146.385L313.578 146.385ZM167.188 26.2176C248.512 26.2176 313.578 80.4498 313.578 146.385L318.578 146.385C318.578 76.8259 250.323 21.2176 167.188 21.2176L167.188 26.2176ZM20.7973 146.385C20.7973 80.4498 85.8636 26.2176 167.188 26.2176L167.188 21.2176C84.052 21.2176 15.7973 76.8258 15.7973 146.385L20.7973 146.385ZM89.509 248.25C48.0647 226.901 20.7973 189.144 20.7973 146.385L15.7973 146.385C15.7973 191.425 44.508 230.693 87.2193 252.695L89.509 248.25ZM80.7093 282.558L91.2158 252.523L86.4962 250.872L75.9897 280.907L80.7093 282.558ZM104.316 256.993L78.2776 280.959L81.6637 284.638L107.702 260.672L104.316 256.993ZM167.188 266.553C146.069 266.553 126.007 262.881 107.888 256.28L106.176 260.978C124.849 267.781 145.491 271.553 167.188 271.553L167.188 266.553ZM107.702 260.672C107.288 261.054 106.699 261.168 106.176 260.978L107.888 256.28C106.661 255.833 105.283 256.104 104.316 256.993L107.702 260.672ZM75.9897 280.907C74.7869 284.346 78.9832 287.105 81.6637 284.638L78.2776 280.959C79.4264 279.902 81.2248 281.084 80.7093 282.558L75.9897 280.907ZM87.2193 252.695C86.5702 252.36 86.2448 251.591 86.4962 250.872L91.2158 252.523C91.798 250.858 91.0486 249.043 89.509 248.25L87.2193 252.695Z" fill="#F2D9E7"/>
<path d="M119.55 134.696V146.504H135.486V154.856H119.55V173H108.67V126.376H138.686V134.696H119.55ZM164.277 155.176L159.957 142.408C159.637 141.597 159.296 140.648 158.933 139.56C158.57 138.451 158.208 137.256 157.845 135.976C157.525 137.277 157.184 138.483 156.821 139.592C156.458 140.701 156.117 141.661 155.797 142.472L151.509 155.176H164.277ZM181.461 173H173.077C172.138 173 171.381 172.787 170.805 172.36C170.229 171.912 169.792 171.347 169.493 170.664L166.741 162.536H149.013L146.261 170.664C146.026 171.261 145.6 171.805 144.981 172.296C144.384 172.765 143.637 173 142.741 173H134.293L152.341 126.376H163.413L181.461 173ZM190.582 149.672C190.582 151.997 190.881 154.088 191.478 155.944C192.076 157.779 192.929 159.336 194.038 160.616C195.169 161.896 196.545 162.877 198.166 163.56C199.809 164.221 201.676 164.552 203.766 164.552C205.836 164.552 207.681 164.221 209.302 163.56C210.924 162.877 212.289 161.896 213.398 160.616C214.529 159.336 215.393 157.779 215.99 155.944C216.588 154.088 216.886 151.997 216.886 149.672C216.886 147.368 216.588 145.299 215.99 143.464C215.393 141.608 214.529 140.04 213.398 138.76C212.289 137.48 210.924 136.499 209.302 135.816C207.681 135.133 205.836 134.792 203.766 134.792C201.676 134.792 199.809 135.133 198.166 135.816C196.545 136.499 195.169 137.48 194.038 138.76C192.929 140.04 192.076 141.608 191.478 143.464C190.881 145.299 190.582 147.368 190.582 149.672ZM230.582 181.736H221.686C220.406 181.736 219.254 181.565 218.23 181.224C217.228 180.904 216.289 180.296 215.414 179.4L209.622 172.904C207.809 173.309 205.857 173.512 203.766 173.512C200.14 173.512 196.833 172.904 193.846 171.688C190.86 170.472 188.3 168.797 186.166 166.664C184.054 164.509 182.412 161.981 181.238 159.08C180.086 156.179 179.51 153.043 179.51 149.672C179.51 146.301 180.086 143.165 181.238 140.264C182.412 137.363 184.054 134.845 186.166 132.712C188.3 130.579 190.86 128.904 193.846 127.688C196.833 126.472 200.14 125.864 203.766 125.864C207.393 125.864 210.689 126.483 213.654 127.72C216.641 128.936 219.19 130.611 221.302 132.744C223.414 134.877 225.046 137.395 226.198 140.296C227.372 143.197 227.958 146.323 227.958 149.672C227.958 151.677 227.745 153.608 227.318 155.464C226.913 157.299 226.316 159.027 225.526 160.648C224.758 162.269 223.798 163.773 222.646 165.16C221.516 166.547 220.225 167.773 218.774 168.84L230.582 181.736Z" fill="#BE2B64"/>
</svg>
