<svg width="21" height="20" viewBox="0 0 21 20" fill="none" xmlns="http://www.w3.org/2000/svg">
<path d="M10.4999 13.2061C10.7196 13.1998 10.9205 13.1182 11.0837 12.9424L15.8549 8.05818C15.9931 7.92006 16.0684 7.74428 16.0684 7.53711C16.0684 7.12277 15.7419 6.79004 15.3276 6.79004C15.1267 6.79004 14.9321 6.87165 14.7877 7.01604L10.5062 11.4169L6.21209 7.01604C6.0677 6.87793 5.87936 6.79004 5.67219 6.79004C5.25785 6.79004 4.9314 7.12277 4.9314 7.53711C4.9314 7.74428 5.00673 7.92006 5.14485 8.05818L9.92233 12.9424C10.0918 13.1182 10.2802 13.2061 10.4999 13.2061Z" fill="#F3F3F3"/>
</svg>
