<svg width="22" height="12" viewBox="0 0 22 12" fill="none" xmlns="http://www.w3.org/2000/svg">
<path d="M11 11.7708C11.3955 11.7595 11.7571 11.6126 12.0509 11.2961L20.6391 2.50457C20.8877 2.25596 21.0233 1.93956 21.0233 1.56665C21.0233 0.820836 20.4357 0.221924 19.6899 0.221924C19.3282 0.221924 18.9779 0.368827 18.718 0.628732L11.0113 8.55019L3.28193 0.628732C3.02202 0.380127 2.68302 0.221924 2.31011 0.221924C1.5643 0.221924 0.976685 0.820836 0.976685 1.56665C0.976685 1.93956 1.11229 2.25596 1.36089 2.50457L9.96036 11.2961C10.2655 11.6126 10.6045 11.7708 11 11.7708Z" fill="#BE2B64"/>
</svg>
