<svg width="42" height="42" viewBox="0 0 42 42" fill="none" xmlns="http://www.w3.org/2000/svg">
<path fill-rule="evenodd" clip-rule="evenodd" d="M1 21C1 9.95431 9.95431 1 21 1C32.0457 1 41 9.95431 41 21C41 32.0457 32.0457 41 21 41C9.95431 41 1 32.0457 1 21Z" stroke="white"/>
<path d="M28.7852 26.7812L29.6719 21H24.125V17.25C24.125 15.668 24.8984 14.125 27.3828 14.125H29.9062V9.20312C29.9062 9.20312 27.6172 8.8125 25.4297 8.8125C20.8594 8.8125 17.875 11.582 17.875 16.5938V21H12.7969V26.7812H17.875V40.7578C18.8945 40.918 19.9375 41 21 41C22.0625 41 23.1055 40.918 24.125 40.7578V26.7812H28.7852Z" fill="white"/>
</svg>
