<svg width="42" height="42" viewBox="0 0 42 42" fill="none" xmlns="http://www.w3.org/2000/svg">
<path fill-rule="evenodd" clip-rule="evenodd" d="M1 21C1 9.95431 9.95431 1 21 1C32.0457 1 41 9.95431 41 21C41 32.0457 32.0457 41 21 41C9.95431 41 1 32.0457 1 21Z" stroke="white"/>
<path fill-rule="evenodd" clip-rule="evenodd" d="M21.0007 10.333C18.1038 10.333 17.7402 10.3457 16.6024 10.3975C15.4668 10.4495 14.6917 10.6292 14.0135 10.893C13.3119 11.1655 12.7168 11.5299 12.1239 12.123C11.5306 12.7159 11.1661 13.311 10.8928 14.0124C10.6283 14.6908 10.4483 15.4662 10.3972 16.6013C10.3463 17.7391 10.333 18.1029 10.333 20.9998C10.333 23.8967 10.3459 24.2592 10.3975 25.3969C10.4497 26.5325 10.6295 27.3076 10.893 27.9859C11.1657 28.6874 11.5301 29.2825 12.1232 29.8754C12.7159 30.4688 13.311 30.8341 14.0122 31.1066C14.6908 31.3703 15.4662 31.5501 16.6015 31.6021C17.7393 31.6539 18.1026 31.6666 20.9993 31.6666C23.8965 31.6666 24.2589 31.6539 25.3967 31.6021C26.5323 31.5501 27.3083 31.3703 27.987 31.1066C28.6883 30.8341 29.2825 30.4688 29.8752 29.8754C30.4686 29.2825 30.833 28.6874 31.1063 27.9861C31.3686 27.3076 31.5486 26.5323 31.6019 25.3972C31.653 24.2594 31.6663 23.8967 31.6663 20.9998C31.6663 18.1029 31.653 17.7393 31.6019 16.6015C31.5486 15.4659 31.3686 14.6908 31.1063 14.0126C30.833 13.311 30.4686 12.7159 29.8752 12.123C29.2819 11.5297 28.6885 11.1652 27.9863 10.893C27.3063 10.6292 26.5307 10.4495 25.3952 10.3975C24.2574 10.3457 23.8952 10.333 20.9973 10.333H21.0007ZM20.0437 12.2552C20.3277 12.2548 20.6446 12.2552 21.0006 12.2552C23.8487 12.2552 24.1862 12.2654 25.3109 12.3166C26.3509 12.3641 26.9154 12.5379 27.2914 12.6839C27.7891 12.8772 28.144 13.1083 28.5172 13.4817C28.8905 13.855 29.1216 14.2106 29.3154 14.7084C29.4614 15.0839 29.6354 15.6484 29.6827 16.6884C29.7338 17.8128 29.7449 18.1506 29.7449 20.9973C29.7449 23.844 29.7338 24.1818 29.6827 25.3062C29.6352 26.3463 29.4614 26.9107 29.3154 27.2863C29.122 27.784 28.8905 28.1385 28.5172 28.5116C28.1438 28.885 27.7894 29.1161 27.2914 29.3094C26.9158 29.4561 26.3509 29.6294 25.3109 29.677C24.1864 29.7281 23.8487 29.7392 21.0006 29.7392C18.1524 29.7392 17.8148 29.7281 16.6904 29.677C15.6504 29.629 15.0859 29.4552 14.7097 29.3092C14.2119 29.1158 13.8563 28.8847 13.483 28.5114C13.1097 28.1381 12.8785 27.7834 12.6848 27.2854C12.5388 26.9098 12.3648 26.3454 12.3174 25.3054C12.2663 24.1809 12.2561 23.8431 12.2561 20.9946C12.2561 18.1462 12.2663 17.8102 12.3174 16.6857C12.365 15.6457 12.5388 15.0812 12.6848 14.7052C12.8781 14.2075 13.1097 13.8519 13.483 13.4786C13.8563 13.1052 14.2119 12.8741 14.7097 12.6803C15.0857 12.5337 15.6504 12.3603 16.6904 12.3126C17.6744 12.2681 18.0557 12.2548 20.0437 12.2526V12.2552ZM26.6945 14.0264C25.9878 14.0264 25.4145 14.599 25.4145 15.3059C25.4145 16.0126 25.9878 16.5859 26.6945 16.5859C27.4011 16.5859 27.9745 16.0126 27.9745 15.3059C27.9745 14.5992 27.4011 14.0264 26.6945 14.0264ZM21.0007 15.5219C17.9756 15.5219 15.5229 17.9746 15.5229 20.9998C15.5229 24.0249 17.9756 26.4765 21.0007 26.4765C24.0258 26.4765 26.4776 24.0249 26.4776 20.9998C26.4776 17.9746 24.0258 15.5219 21.0007 15.5219ZM21.0007 17.4442C22.9642 17.4442 24.5562 19.036 24.5562 20.9998C24.5562 22.9633 22.9642 24.5553 21.0007 24.5553C19.0369 24.5553 17.4451 22.9633 17.4451 20.9998C17.4451 19.036 19.0369 17.4442 21.0007 17.4442Z" fill="white"/>
</svg>
