<svg width="16" height="27" viewBox="0 0 16 27" fill="none" xmlns="http://www.w3.org/2000/svg">
<path d="M15.6881 13.4074C15.673 12.88 15.4771 12.428 15.0703 12.0212L3.34821 0.555246C3.00167 0.223772 2.59487 0.0429688 2.09766 0.0429688C1.08817 0.0429688 0.304688 0.826451 0.304688 1.83594C0.304688 2.31808 0.500558 2.77009 0.847098 3.11663L11.394 13.4074L0.847098 23.6981C0.500558 24.0446 0.304688 24.4816 0.304688 24.9788C0.304688 25.9883 1.08817 26.7718 2.09766 26.7718C2.5798 26.7718 3.00167 26.591 3.34821 26.2595L15.0703 14.7785C15.4922 14.3867 15.6881 13.9347 15.6881 13.4074Z" fill="#505050"/>
</svg>
