<svg width="16" height="27" viewBox="0 0 16 27" fill="none" xmlns="http://www.w3.org/2000/svg">
<path d="M0.311943 13.4074C0.32701 12.88 0.52288 12.428 0.929688 12.0212L12.6518 0.555246C12.9983 0.223772 13.4051 0.0429688 13.9023 0.0429688C14.9118 0.0429688 15.6953 0.826451 15.6953 1.83594C15.6953 2.31808 15.4994 2.77009 15.1529 3.11663L4.60603 13.4074L15.1529 23.6981C15.4994 24.0446 15.6953 24.4816 15.6953 24.9788C15.6953 25.9883 14.9118 26.7718 13.9023 26.7718C13.4202 26.7718 12.9983 26.591 12.6518 26.2595L0.929688 14.7785C0.507813 14.3867 0.311943 13.9347 0.311943 13.4074Z" fill="#505050"/>
</svg>
