<svg width="28" height="28" viewBox="0 0 28 28" fill="none" xmlns="http://www.w3.org/2000/svg">
<g clip-path="url(#clip0_614_6695)">
<path d="M18.2071 9.56523L18.329 9.87918L18.6658 9.88414L26.3342 9.99709C27.4606 10.0682 27.9159 11.4863 27.0401 12.1992L27.0341 12.2041L27.0282 12.2092L20.8013 17.6087L20.56 17.8179L20.6483 18.1247L22.7697 25.4946C23.0643 26.574 21.8959 27.4644 20.932 26.8911L20.9242 26.8865L20.9162 26.8821L14.2398 23.2328L13.9999 23.1017L13.76 23.2329L7.08364 26.8851L7.07575 26.8895L7.06803 26.8941C6.10406 27.4673 4.93564 26.5769 5.23027 25.4975L7.35166 18.1277L7.43999 17.8208L7.19873 17.6116L0.971797 12.2122L0.965919 12.2071L0.959884 12.2022C0.084951 11.49 0.538294 10.0708 1.66635 9.99708L9.33418 9.88414L9.67094 9.87918L9.79289 9.56523L12.8485 1.69857C13.2672 0.668028 14.7293 0.665577 15.1516 1.69905L18.2071 9.56523Z" stroke="#BE2B64"/>
</g>
<defs>
<clipPath id="clip0_614_6695">
<rect width="28" height="28" fill="white"/>
</clipPath>
</defs>
</svg>
