<svg width="42" height="42" viewBox="0 0 42 42" fill="none" xmlns="http://www.w3.org/2000/svg">
<path fill-rule="evenodd" clip-rule="evenodd" d="M1 21C1 9.95431 9.95431 1 21 1C32.0457 1 41 9.95431 41 21C41 32.0457 32.0457 41 21 41C9.95431 41 1 32.0457 1 21Z" stroke="white"/>
<path fill-rule="evenodd" clip-rule="evenodd" d="M29.3343 14.1248C30.2523 14.3767 30.9752 15.1188 31.2205 16.0613C31.6663 17.7695 31.6663 21.3337 31.6663 21.3337C31.6663 21.3337 31.6663 24.8977 31.2205 26.606C30.9752 27.5485 30.2523 28.2907 29.3343 28.5427C27.6708 29.0003 20.9997 29.0003 20.9997 29.0003C20.9997 29.0003 14.3285 29.0003 12.6649 28.5427C11.7469 28.2907 11.024 27.5485 10.7787 26.606C10.333 24.8977 10.333 21.3337 10.333 21.3337C10.333 21.3337 10.333 17.7695 10.7787 16.0613C11.024 15.1188 11.7469 14.3767 12.6649 14.1248C14.3285 13.667 20.9997 13.667 20.9997 13.667C20.9997 13.667 27.6708 13.667 29.3343 14.1248ZM18.9997 18.3336V25.0003L24.333 21.667L18.9997 18.3336Z" fill="white"/>
</svg>
